<?xml version="1.0" encoding="UTF-8" standalone="no"?>
<svg
   data-name="Layer 1"
   width="786.82001"
   height="430.97913"
   viewBox="0 0 786.82001 430.97911"
   version="1.1"
   id="svg5316"
   sodipodi:docname="hero_bg.svg"
   inkscape:version="1.2-beta (1b65182ce9, 2022-04-05)"
   xmlns:inkscape="http://www.inkscape.org/namespaces/inkscape"
   xmlns:sodipodi="http://sodipodi.sourceforge.net/DTD/sodipodi-0.dtd"
   xmlns="http://www.w3.org/2000/svg"
   xmlns:svg="http://www.w3.org/2000/svg">
  <defs
     id="defs5320" />
  <sodipodi:namedview
     id="namedview5318"
     pagecolor="#ffffff"
     bordercolor="#000000"
     borderopacity="0.25"
     inkscape:pageshadow="2"
     inkscape:pageopacity="0.0"
     inkscape:pagecheckerboard="0"
     inkscape:deskcolor="#d1d1d1"
     showgrid="false"
     inkscape:zoom="0.82480315"
     inkscape:cx="280.67303"
     inkscape:cy="177.01193"
     inkscape:window-width="1920"
     inkscape:window-height="1129"
     inkscape:window-x="-8"
     inkscape:window-y="-8"
     inkscape:window-maximized="1"
     inkscape:current-layer="svg5316" />
  <circle
     cx="458.32138"
     cy="26.70075"
     r="26.70075"
     fill="#f2f2f2"
     id="circle5109"
     style="fill:#ffffff" />
  <path
     d="m 665.44753,391.95681 c 39.6877,-25.35141 58.64352,-67.95186 46.77635,-108.59014 q -0.44231,-1.5146 -0.93367,-3.02232 c -7.86742,-24.1224 -27.33167,-47.04865 -55.7,-54.75642 -23.81971,-6.4718 -49.81962,-1.4951 -74.66936,-4.0687 C 532.13949,216.46707 494.32028,183.36577 467.7097,148.70835 441.09906,114.05083 420.64788,75.256773 385.28813,46.624633 327.00334,-0.57060239 231.92621,-10.731774 159.66142,19.988792 87.39673,50.709463 41.36487,118.86573 43.328,186.79197 c 1.96322,67.92632 50.04632,132.86852 119.87492,167.32459 25.65222,12.65771 55.32138,21.62473 84.84826,18.48697 25.62011,-2.7226 48.89908,-14.26763 74.39861,-17.69514 40.09115,-5.38888 79.92687,9.81289 114.60268,27.52758 34.67571,17.71467 68.17007,38.7119 107.57436,46.9244 38.26148,7.97429 85.66368,-14.94622 120.8207,-37.40356 z"
     fill="#f2f2f2"
     id="path5111"
     style="fill:#ffffff;stroke-width:0.915777" />
  <path
     d="m 0,362.80993 a 289.0029,289.0029 0 0 0 28.12,28.95 l 730.58,1 a 289.0029,289.0029 0 0 0 28.12,-28.95 z"
     fill="#3f3d56"
     id="path5115" />
  <path
     d="m 495.42993,270.11045 v 85.704 a 4.12233,4.12233 0 0 0 4.11906,4.11907 h 127.00449 a 4.12232,4.12232 0 0 0 4.11907,-4.11907 v -85.704 a 4.12433,4.12433 0 0 0 -4.11907,-4.11452 H 499.549 a 4.12434,4.12434 0 0 0 -4.11907,4.11452 z"
     fill="#3f3d56"
     id="path5117" />
  <path
     d="m 498.40939,271.17681 v 83.58039 a 2.20523,2.20523 0 0 0 2.20141,2.20141 h 124.88546 a 2.20522,2.20522 0 0 0 2.20141,-2.20141 v -83.58039 a 2.20621,2.20621 0 0 0 -2.20141,-2.206 H 500.6108 a 2.20623,2.20623 0 0 0 -2.20141,2.206 z"
     fill="#f50057"
     id="path5119" />
  <path
     d="m 492.77376,372.529 a 2.46985,2.46985 0 0 0 1.94346,0.92984 h 135.99195 a 2.5024,2.5024 0 0 0 2.44606,-3.0157 l -2.111,-10.02722 a 2.50694,2.50694 0 0 0 -1.55811,-1.81784 2.42467,2.42467 0 0 0 -0.888,-0.1675 H 496.81985 a 2.42446,2.42446 0 0 0 -0.888,0.1675 2.50671,2.50671 0 0 0 -1.55811,1.81784 l -2.111,10.02722 a 2.5005,2.5005 0 0 0 0.51102,2.08586 z"
     fill="#2f2e41"
     id="path5121" />
  <rect
     x="-627.63226"
     y="-362.74951"
     width="4.1884899"
     height="2.5130899"
     rx="0.48819"
     transform="scale(-1)"
     fill="#3f3d56"
     id="rect5123" />
  <rect
     x="-619.25531"
     y="-362.74951"
     width="4.1884899"
     height="2.5130899"
     rx="0.48819"
     transform="scale(-1)"
     fill="#3f3d56"
     id="rect5125" />
  <rect
     x="-610.8783"
     y="-362.74951"
     width="4.1884899"
     height="2.5130899"
     rx="0.48819"
     transform="scale(-1)"
     fill="#3f3d56"
     id="rect5127" />
  <rect
     x="-602.50134"
     y="-362.74951"
     width="4.1884899"
     height="2.5130899"
     rx="0.48819"
     transform="scale(-1)"
     fill="#3f3d56"
     id="rect5129" />
  <rect
     x="-594.12433"
     y="-362.74951"
     width="4.1884899"
     height="2.5130899"
     rx="0.48819"
     transform="scale(-1)"
     fill="#3f3d56"
     id="rect5131" />
  <rect
     x="-585.74738"
     y="-362.74951"
     width="4.1884899"
     height="2.5130899"
     rx="0.48819"
     transform="scale(-1)"
     fill="#3f3d56"
     id="rect5133" />
  <rect
     x="-577.37036"
     y="-362.74951"
     width="4.1884899"
     height="2.5130899"
     rx="0.48819"
     transform="scale(-1)"
     fill="#3f3d56"
     id="rect5135" />
  <rect
     x="-568.99341"
     y="-362.74951"
     width="4.1884899"
     height="2.5130899"
     rx="0.48819"
     transform="scale(-1)"
     fill="#3f3d56"
     id="rect5137" />
  <rect
     x="-560.61646"
     y="-362.74951"
     width="4.1884899"
     height="2.5130899"
     rx="0.48819"
     transform="scale(-1)"
     fill="#3f3d56"
     id="rect5139" />
  <rect
     x="-552.2395"
     y="-362.74951"
     width="4.1884899"
     height="2.5130899"
     rx="0.48819"
     transform="scale(-1)"
     fill="#3f3d56"
     id="rect5141" />
  <rect
     x="-543.86243"
     y="-362.74951"
     width="4.1884899"
     height="2.5130899"
     rx="0.48819"
     transform="scale(-1)"
     fill="#3f3d56"
     id="rect5143" />
  <rect
     x="-535.48553"
     y="-362.74951"
     width="4.1884899"
     height="2.5130899"
     rx="0.48819"
     transform="scale(-1)"
     fill="#3f3d56"
     id="rect5145" />
  <rect
     x="-527.10846"
     y="-362.74951"
     width="4.1884899"
     height="2.5130899"
     rx="0.48819"
     transform="scale(-1)"
     fill="#3f3d56"
     id="rect5147" />
  <rect
     x="-518.73157"
     y="-362.74951"
     width="4.1884899"
     height="2.5130899"
     rx="0.48819"
     transform="scale(-1)"
     fill="#3f3d56"
     id="rect5149" />
  <rect
     x="-510.35455"
     y="-362.74951"
     width="4.1884899"
     height="2.5130899"
     rx="0.48819"
     transform="scale(-1)"
     fill="#3f3d56"
     id="rect5151" />
  <rect
     x="-501.97751"
     y="-362.74951"
     width="4.1884899"
     height="2.5130899"
     rx="0.48819"
     transform="scale(-1)"
     fill="#3f3d56"
     id="rect5153" />
  <rect
     x="-627.73126"
     y="-366.93802"
     width="4.1884899"
     height="2.5130899"
     rx="0.48819"
     transform="scale(-1)"
     fill="#3f3d56"
     id="rect5155" />
  <rect
     x="-619.35425"
     y="-366.93802"
     width="4.1884899"
     height="2.5130899"
     rx="0.48819"
     transform="scale(-1)"
     fill="#3f3d56"
     id="rect5157" />
  <rect
     x="-610.97736"
     y="-366.93802"
     width="4.1884899"
     height="2.5130899"
     rx="0.48819"
     transform="scale(-1)"
     fill="#3f3d56"
     id="rect5159" />
  <rect
     x="-602.60034"
     y="-366.93802"
     width="4.1884899"
     height="2.5130899"
     rx="0.48819"
     transform="scale(-1)"
     fill="#3f3d56"
     id="rect5161" />
  <rect
     x="-594.22333"
     y="-366.93802"
     width="4.1884899"
     height="2.5130899"
     rx="0.48819"
     transform="scale(-1)"
     fill="#3f3d56"
     id="rect5163" />
  <rect
     x="-585.84637"
     y="-366.93802"
     width="4.1884899"
     height="2.5130899"
     rx="0.48819"
     transform="scale(-1)"
     fill="#3f3d56"
     id="rect5165" />
  <rect
     x="-577.46942"
     y="-366.93802"
     width="4.1884899"
     height="2.5130899"
     rx="0.48819"
     transform="scale(-1)"
     fill="#3f3d56"
     id="rect5167" />
  <rect
     x="-569.09241"
     y="-366.93802"
     width="4.1884899"
     height="2.5130899"
     rx="0.48819"
     transform="scale(-1)"
     fill="#3f3d56"
     id="rect5169" />
  <rect
     x="-560.71539"
     y="-366.93802"
     width="4.1884899"
     height="2.5130899"
     rx="0.48819"
     transform="scale(-1)"
     fill="#3f3d56"
     id="rect5171" />
  <rect
     x="-552.33844"
     y="-366.93802"
     width="4.1884899"
     height="2.5130899"
     rx="0.48819"
     transform="scale(-1)"
     fill="#3f3d56"
     id="rect5173" />
  <rect
     x="-543.96143"
     y="-366.93802"
     width="4.1884899"
     height="2.5130899"
     rx="0.48819"
     transform="scale(-1)"
     fill="#3f3d56"
     id="rect5175" />
  <rect
     x="-535.58447"
     y="-366.93802"
     width="4.1884899"
     height="2.5130899"
     rx="0.48819"
     transform="scale(-1)"
     fill="#3f3d56"
     id="rect5177" />
  <rect
     x="-527.20746"
     y="-366.93802"
     width="4.1884899"
     height="2.5130899"
     rx="0.48819"
     transform="scale(-1)"
     fill="#3f3d56"
     id="rect5179" />
  <rect
     x="-518.83051"
     y="-366.93802"
     width="4.1884899"
     height="2.5130899"
     rx="0.48819"
     transform="scale(-1)"
     fill="#3f3d56"
     id="rect5181" />
  <rect
     x="-510.45352"
     y="-366.93802"
     width="4.1884899"
     height="2.5130899"
     rx="0.48819"
     transform="scale(-1)"
     fill="#3f3d56"
     id="rect5183" />
  <rect
     x="-502.07657"
     y="-366.93802"
     width="4.1884899"
     height="2.5130899"
     rx="0.48819"
     transform="scale(-1)"
     fill="#3f3d56"
     id="rect5185" />
  <rect
     x="-587.52173"
     y="-371.9642"
     width="33.507931"
     height="2.5130899"
     rx="0.48819"
     transform="scale(-1)"
     fill="#3f3d56"
     id="rect5187" />
  <rect
     x="515.63104"
     y="287.2562"
     width="5.9658499"
     height="3.12216"
     rx="1.56108"
     fill="#ffffff"
     id="rect5189" />
  <rect
     x="548.15405"
     y="287.2562"
     width="5.9658499"
     height="3.12216"
     rx="1.56108"
     fill="#ffffff"
     id="rect5191" />
  <rect
     x="557.3689"
     y="287.2562"
     width="5.9658499"
     height="3.12216"
     rx="1.56108"
     fill="#ffffff"
     id="rect5193" />
  <rect
     x="524.47742"
     y="286.99594"
     width="20.796129"
     height="3.12216"
     rx="1.56108"
     fill="#ffffff"
     id="rect5195" />
  <rect
     x="567.84143"
     y="286.99594"
     width="20.796129"
     height="3.12216"
     rx="1.56108"
     fill="#ffffff"
     id="rect5197" />
  <rect
     x="524.30383"
     y="294.30286"
     width="5.9658499"
     height="3.12216"
     rx="1.56108"
     fill="#ffffff"
     id="rect5199" />
  <rect
     x="556.82684"
     y="294.30286"
     width="5.9658499"
     height="3.12216"
     rx="1.56108"
     fill="#ffffff"
     id="rect5201" />
  <rect
     x="566.04175"
     y="294.30286"
     width="5.9658499"
     height="3.12216"
     rx="1.56108"
     fill="#ffffff"
     id="rect5203" />
  <rect
     x="533.15021"
     y="294.04257"
     width="20.796129"
     height="3.12216"
     rx="1.56108"
     fill="#ffffff"
     id="rect5205" />
  <rect
     x="576.51422"
     y="294.04257"
     width="20.796129"
     height="3.12216"
     rx="1.56108"
     fill="#ffffff"
     id="rect5207" />
  <rect
     x="532.97668"
     y="301.34952"
     width="5.9658499"
     height="3.12216"
     rx="1.56108"
     fill="#ffffff"
     id="rect5209" />
  <rect
     x="565.49969"
     y="301.34952"
     width="5.9658499"
     height="3.12216"
     rx="1.56108"
     fill="#ffffff"
     id="rect5211" />
  <rect
     x="574.71454"
     y="301.34952"
     width="5.9658499"
     height="3.12216"
     rx="1.56108"
     fill="#ffffff"
     id="rect5213" />
  <rect
     x="541.82306"
     y="301.08923"
     width="20.796129"
     height="3.12216"
     rx="1.56108"
     fill="#ffffff"
     id="rect5215" />
  <rect
     x="585.18701"
     y="301.08923"
     width="20.796129"
     height="3.12216"
     rx="1.56108"
     fill="#ffffff"
     id="rect5217" />
  <rect
     x="541.64948"
     y="308.39618"
     width="5.9658499"
     height="3.12216"
     rx="1.56108"
     fill="#ffffff"
     id="rect5219" />
  <rect
     x="574.17249"
     y="308.39618"
     width="5.9658499"
     height="3.12216"
     rx="1.56108"
     fill="#ffffff"
     id="rect5221" />
  <rect
     x="583.38733"
     y="308.39618"
     width="5.9658499"
     height="3.12216"
     rx="1.56108"
     fill="#ffffff"
     id="rect5223" />
  <rect
     x="550.49585"
     y="308.13589"
     width="20.796129"
     height="3.12216"
     rx="1.56108"
     fill="#ffffff"
     id="rect5225" />
  <rect
     x="548.15405"
     y="336.41666"
     width="5.9658499"
     height="3.12216"
     rx="1.56108"
     fill="#ffffff"
     id="rect5227" />
  <rect
     x="557.3689"
     y="336.41666"
     width="5.9658499"
     height="3.12216"
     rx="1.56108"
     fill="#ffffff"
     id="rect5229" />
  <rect
     x="567.84143"
     y="336.67691"
     width="20.796129"
     height="3.12216"
     rx="1.56108"
     fill="#ffffff"
     id="rect5231" />
  <rect
     x="515.63104"
     y="336.41666"
     width="5.9658499"
     height="3.12216"
     rx="1.56108"
     fill="#ffffff"
     id="rect5233" />
  <rect
     x="524.47742"
     y="336.67691"
     width="20.796129"
     height="3.12216"
     rx="1.56108"
     fill="#ffffff"
     id="rect5235" />
  <rect
     x="524.30383"
     y="329.37"
     width="5.9658499"
     height="3.12216"
     rx="1.56108"
     fill="#ffffff"
     id="rect5237" />
  <rect
     x="556.82684"
     y="329.37"
     width="5.9658499"
     height="3.12216"
     rx="1.56108"
     fill="#ffffff"
     id="rect5239" />
  <rect
     x="566.04175"
     y="329.37"
     width="5.9658499"
     height="3.12216"
     rx="1.56108"
     fill="#ffffff"
     id="rect5241" />
  <rect
     x="533.15021"
     y="329.63028"
     width="20.796129"
     height="3.12216"
     rx="1.56108"
     fill="#ffffff"
     id="rect5243" />
  <rect
     x="532.97668"
     y="322.32333"
     width="5.9658499"
     height="3.12216"
     rx="1.56108"
     fill="#ffffff"
     id="rect5245" />
  <rect
     x="565.49969"
     y="322.32333"
     width="5.9658499"
     height="3.12216"
     rx="1.56108"
     fill="#ffffff"
     id="rect5247" />
  <rect
     x="574.71454"
     y="322.32333"
     width="5.9658499"
     height="3.12216"
     rx="1.56108"
     fill="#ffffff"
     id="rect5249" />
  <rect
     x="541.82306"
     y="322.58362"
     width="20.796129"
     height="3.12216"
     rx="1.56108"
     fill="#ffffff"
     id="rect5251" />
  <rect
     x="541.64948"
     y="315.27667"
     width="5.9658499"
     height="3.12216"
     rx="1.56108"
     fill="#ffffff"
     id="rect5253" />
  <rect
     x="574.17249"
     y="315.27667"
     width="5.9658499"
     height="3.12216"
     rx="1.56108"
     fill="#ffffff"
     id="rect5255" />
  <rect
     x="583.38733"
     y="315.27667"
     width="5.9658499"
     height="3.12216"
     rx="1.56108"
     fill="#ffffff"
     id="rect5257" />
  <rect
     x="550.49585"
     y="315.53696"
     width="20.796129"
     height="3.12216"
     rx="1.56108"
     fill="#ffffff"
     id="rect5259" />
  <path
     d="m 191.69,265.99993 v 102.56 h 71.85 v -102.56 a 3.448,3.448 0 0 0 -2.43,-3.3 3.1749,3.1749 0 0 0 -1.03,-0.16 h -64.92 a 3.46328,3.46328 0 0 0 -3.47,3.46 z m 28.04,35.24 a 7.67033,7.67033 0 0 1 15.34,0 v 11.9 a 7.6701,7.6701 0 0 1 -15.34,0 z"
     fill="#2f2e41"
     id="path5263" />
  <path
     d="m 191.47006,365.28 v 9.89 a 1.94622,1.94622 0 0 0 1.93,1.94 h 68.43 a 1.93972,1.93972 0 0 0 1.93,-1.94 v -9.89 z"
     fill="#3f3d56"
     id="path5265" />
  <path
     d="m 78.66,111.48 v 187.25992 a 9.00714,9.00714 0 0 0 9,9 h 277.5 a 9.0071,9.0071 0 0 0 9,-9 V 111.48 a 9.01147,9.01147 0 0 0 -9,-8.99 H 87.66 a 9.01151,9.01151 0 0 0 -9,8.99 z"
     fill="#3f3d56"
     id="path5267" />
  <path
     d="m 85.17,113.80993 v 182.62 a 4.81833,4.81833 0 0 0 4.81,4.81 h 272.87 a 4.81829,4.81829 0 0 0 4.81,-4.81 v -182.62 a 4.82047,4.82047 0 0 0 -4.81,-4.82 H 89.98 a 4.82051,4.82051 0 0 0 -4.81,4.82 z"
     fill="#ffffff"
     id="path5269" />
  <path
     d="m 135.81,376.43993 a 2.9484,2.9484 0 0 0 2.32,1.11 h 162.34 a 2.98725,2.98725 0 0 0 2.92,-3.6 l -2.52,-11.97 a 2.99264,2.99264 0 0 0 -1.86,-2.17 2.89454,2.89454 0 0 0 -1.06,-0.19995 H 140.64 a 2.8943,2.8943 0 0 0 -1.06,0.19995 2.99239,2.99239 0 0 0 -1.86,2.17 l -2.52,11.97 a 2.985,2.985 0 0 0 0.61,2.49 z"
     fill="#2f2e41"
     id="path5271" />
  <path
     d="M 353.99451,134.14666 H 98.67115 a 1.0156,1.0156 0 0 1 0,-2.0307 h 255.32336 a 1.0156,1.0156 0 0 1 0,2.0307 z"
     fill="#3f3d56"
     id="path5273" />
  <ellipse
     cx="116.05134"
     cy="120.84877"
     rx="5.9504299"
     ry="6.0830402"
     fill="#3f3d56"
     id="ellipse5275" />
  <ellipse
     cx="136.60736"
     cy="120.84877"
     rx="5.9504299"
     ry="6.0830402"
     fill="#3f3d56"
     id="ellipse5277" />
  <ellipse
     cx="157.16339"
     cy="120.84877"
     rx="5.9504299"
     ry="6.0830402"
     fill="#3f3d56"
     id="ellipse5279" />
  <path
     d="m 341.61637,116.27 h -14.6 a 1.1053,1.1053 0 0 0 0,2.21 h 14.6 a 1.10511,1.10511 0 0 0 0,-2.21 z"
     fill="#3f3d56"
     id="path5281" />
  <path
     d="m 341.61637,120.42 h -14.6 a 1.10527,1.10527 0 0 0 0,2.21 h 14.6 a 1.10508,1.10508 0 0 0 0,-2.21 z"
     fill="#3f3d56"
     id="path5283" />
  <path
     d="m 341.61637,124.56994 h -14.6 a 1.1053,1.1053 0 0 0 0,2.21 h 14.6 a 1.10511,1.10511 0 0 0 0,-2.21 z"
     fill="#3f3d56"
     id="path5285" />
  <rect
     x="209.38457"
     y="189.34625"
     width="50.719158"
     height="10.8457"
     rx="3.2641699"
     fill="#f50057"
     id="rect5297" />
  <rect
     x="183.62604"
     y="211.03766"
     width="102.23622"
     height="10.8457"
     rx="3.2641699"
     fill="#e6e6e6"
     id="rect5299" />
  <rect
     x="183.62604"
     y="232.72903"
     width="102.23622"
     height="10.8457"
     rx="3.2641699"
     fill="#e6e6e6"
     id="rect5301" />
  <rect
     x="406.21689"
     width="46.663033"
     height="85.024055"
     rx="8.4062672"
     fill="#3f3d56"
     id="rect6246"
     y="278.29974"
     style="stroke-width:0.143138" />
  <path
     d="m 452.09272,286.70655 v 68.21105 a 7.6280732,7.6280732 0 0 1 -7.61925,7.61924 h -29.85002 a 7.6280732,7.6280732 0 0 1 -7.61925,-7.61924 v -68.21105 a 7.6280793,7.6280793 0 0 1 7.61925,-7.61924 h 3.90337 v 1.34836 a 2.301793,2.301793 0 0 0 2.30166,2.30166 h 17.43996 a 2.301793,2.301793 0 0 0 2.30166,-2.30166 v -1.34836 h 3.90337 a 7.6280803,7.6280803 0 0 1 7.61925,7.61924 z"
     fill="#ffffff"
     id="path6248"
     style="stroke-width:0.143138" />
  <path
     d="m 406.00217,295.54786 a 0.57321102,0.57321102 0 0 1 -0.57255,-0.57255 v -1.14511 a 0.57255256,0.57255256 0 0 1 1.1451,0 v 1.14511 a 0.57320811,0.57320811 0 0 1 -0.57255,0.57255 z"
     fill="#3f3d56"
     id="path6250"
     style="stroke-width:0.143138" />
  <path
     d="m 406.00217,301.4196 a 0.57320811,0.57320811 0 0 1 -0.57255,-0.57255 v -3.15212 a 0.57255256,0.57255256 0 0 1 1.1451,0 v 3.15212 a 0.57320811,0.57320811 0 0 1 -0.57255,0.57255 z"
     fill="#3f3d56"
     id="path6252"
     style="stroke-width:0.143138" />
  <path
     d="m 406.00217,306.14008 a 0.57320811,0.57320811 0 0 1 -0.57255,-0.57255 v -3.15212 a 0.57255256,0.57255256 0 0 1 1.1451,0 v 3.15212 a 0.57320954,0.57320954 0 0 1 -0.57255,0.57255 z"
     fill="#3f3d56"
     id="path6254"
     style="stroke-width:0.143138" />
  <path
     d="m 452.95148,303.5636 a 0.57320811,0.57320811 0 0 1 -0.57255,-0.57256 v -7.6913 a 0.57255256,0.57255256 0 0 1 1.1451,0 v 7.6913 a 0.57320954,0.57320954 0 0 1 -0.57255,0.57256 z"
     fill="#3f3d56"
     id="path6256"
     style="stroke-width:0.143138" />
  <path
     d="m 430.77831,280.9257 h -4.43728 a 0.35784535,0.35784535 0 0 1 0,-0.71569 h 4.43728 a 0.35784535,0.35784535 0 0 1 0,0.71569 z"
     fill="#ffffff"
     id="path6258"
     style="stroke-width:0.143138" />
  <circle
     cx="433.06854"
     cy="280.56787"
     r="0.28627628"
     fill="#ffffff"
     id="circle6260"
     style="stroke-width:0.143138" />
  <path
     d="m 416.8214,282.46118 h -3.86474 a 0.71569067,0.71569067 0 0 1 0,-1.43138 h 3.86474 a 0.71569067,0.71569067 0 0 1 0,1.43138 z"
     fill="#e6e6e6"
     id="path6266"
     style="stroke-width:0.143138" />
  <circle
     cx="442.15686"
     cy="281.74551"
     r="0.64412165"
     fill="#e6e6e6"
     id="circle6268"
     style="stroke-width:0.143138" />
  <circle
     cx="444.1608"
     cy="281.74551"
     r="0.64412165"
     fill="#e6e6e6"
     id="circle6270"
     style="stroke-width:0.143138" />
  <circle
     cx="446.16473"
     cy="281.74551"
     r="0.64412165"
     fill="#e6e6e6"
     id="circle6272"
     style="stroke-width:0.143138" />
  <path
     d="m 441.70649,292.46425 h -24.29054 a 1.7773592,1.7773592 0 0 0 -1.77491,1.77492 v 15.78956 a 1.777362,1.777362 0 0 0 1.77491,1.77492 h 24.29054 a 1.7764431,1.7764431 0 0 0 1.77492,-1.77492 v -15.78956 a 1.7764416,1.7764416 0 0 0 -1.77492,-1.77492 z"
     fill="#f2f2f2"
     id="path6274"
     style="stroke-width:0.143138" />
  <path
     d="m 434.10196,299.20488 a 113.2801,113.2801 0 0 1 -7.25448,11.22486 h -3.80923 q 3.74256,-4.5594 7.49066,-9.1188 c 0.71683,-0.87522 1.49479,-1.79209 2.57004,-2.14773 z"
     fill="#3f3d56"
     id="path6276"
     style="stroke-width:0.143138" />
  <path
     d="m 429.03967,298.58252 c -0.39733,0.41398 -0.77798,0.84463 -1.13639,1.29197 -0.78908,0.95022 -1.56703,1.90878 -2.34777,2.86456 -0.48622,0.59457 -0.97245,1.18916 -1.45312,1.78375 a 3.5481984,3.5481984 0 0 1 -0.43343,-0.32786 3.8877378,3.8877378 0 0 1 4.96782,-5.97918 3.5834848,3.5834848 0 0 1 0.40289,0.36676 z"
     fill="#f50057"
     id="path6278"
     style="stroke-width:0.143138" />
  <path
     d="m 443.48141,298.13109 v 0.57684 l -0.25765,-0.0945 -3.62569,-1.32547 c -1.18088,-0.43084 -2.35891,-0.92324 -3.57845,-1.23384 a 5.6398716,5.6398716 0 0 0 -3.24065,0.0415 7.435982,7.435982 0 0 0 -2.52496,1.56736 c -0.32205,0.29772 -0.6341,0.60261 -0.93612,0.91895 -0.0988,0.10448 -0.19753,0.20898 -0.29486,0.31347 -0.292,0.31776 -0.57398,0.64269 -0.84165,0.97906 -0.78869,0.95044 -1.56737,1.90947 -2.34747,2.8642 -0.48667,0.59545 -0.97334,1.18947 -1.45428,1.7835 q -2.40902,2.94793 -4.78941,5.90731 a 2.7964526,2.7964526 0 0 1 -0.6341,-0.0802 q 2.42834,-3.01664 4.87958,-6.01753 0.0558,-0.0687 0.11165,-0.13741 c 0.19181,-0.23904 0.3879,-0.47951 0.58257,-0.71855 q 1.22169,-1.49651 2.4448,-2.99016 c 0.59259,-0.72428 1.18089,-1.45142 1.81929,-2.13848 0.0386,-0.0444 0.0787,-0.0873 0.12023,-0.13169 0.0616,-0.0658 0.1231,-0.13026 0.18608,-0.19753 1.38701,-1.43281 3.11755,-2.69958 5.19019,-2.73394 1.21954,-0.0186 2.39757,0.36787 3.53122,0.77582 1.22097,0.44229 2.43764,0.89175 3.65718,1.33834 z"
     fill="#3f3d56"
     id="path6280"
     style="stroke-width:0.143138" />
  <path
     d="m 444.05255,346.6651 h -29.00817 a 1.776831,1.776831 0 0 1 -1.7748,-1.7748 v -3.9095 a 1.776831,1.776831 0 0 1 1.7748,-1.77479 h 29.00817 a 1.776831,1.776831 0 0 1 1.77479,1.77479 v 3.9095 a 1.776831,1.776831 0 0 1 -1.77479,1.7748 z"
     fill="#f2f2f2"
     id="path6282"
     style="stroke-width:0.143138" />
  <path
     d="m 444.05255,326.62576 h -29.00817 a 1.776831,1.776831 0 0 1 -1.7748,-1.7748 v -3.90949 a 1.776831,1.776831 0 0 1 1.7748,-1.7748 h 29.00817 a 1.776831,1.776831 0 0 1 1.77479,1.7748 v 3.90949 a 1.776831,1.776831 0 0 1 -1.77479,1.7748 z"
     fill="#f2f2f2"
     id="path6284"
     style="stroke-width:0.143138" />
  <path
     d="m 444.05255,336.64543 h -29.00817 a 1.776831,1.776831 0 0 1 -1.7748,-1.7748 v -3.90949 a 1.776831,1.776831 0 0 1 1.7748,-1.7748 h 29.00817 a 1.776831,1.776831 0 0 1 1.77479,1.7748 v 3.90949 a 1.776831,1.776831 0 0 1 -1.77479,1.7748 z"
     fill="#f2f2f2"
     id="path6286"
     style="stroke-width:0.143138" />
  <path
     d="m 433.07271,342.26645 h -8.54702 a 0.38234631,0.38234631 0 0 1 0,-0.76469 h 8.54702 a 0.38234631,0.38234631 0 0 1 0,0.76469 z"
     fill="#ffffff"
     id="path6288"
     style="fill:#f50057;fill-opacity:1;stroke-width:0.143138" />
  <path
     d="M 441.29315,344.36936 H 424.4301 a 0.38234631,0.38234631 0 0 1 0,-0.76469 h 16.86305 a 0.38234631,0.38234631 0 0 1 0,0.76469 z"
     fill="#ffffff"
     id="path6290"
     style="fill:#f50057;fill-opacity:1;stroke-width:0.143138" />
  <circle
     cx="419.98495"
     cy="342.93558"
     r="2.5635254"
     fill="#ffffff"
     id="circle6292"
     style="stroke-width:0.143138" />
  <path
     d="m 467.24093,326.62576 h -29.00818 a 1.776831,1.776831 0 0 1 -1.77479,-1.7748 v -3.90949 a 1.776831,1.776831 0 0 1 1.77479,-1.7748 h 29.00818 a 1.776831,1.776831 0 0 1 1.7748,1.7748 v 3.90949 a 1.776831,1.776831 0 0 1 -1.7748,1.7748 z"
     fill="#e6e6e6"
     id="path6332"
     style="stroke-width:0.143138" />
  <path
     d="m 456.26109,322.22711 h -8.54702 a 0.38234631,0.38234631 0 1 1 0,-0.76469 h 8.54702 a 0.38234631,0.38234631 0 1 1 0,0.76469 z"
     fill="#ffffff"
     id="path6334"
     style="fill:#f50057;fill-opacity:1;stroke-width:0.143138" />
  <path
     d="m 464.48153,324.33002 h -16.86305 a 0.38234631,0.38234631 0 1 1 0,-0.76469 h 16.86305 a 0.38234631,0.38234631 0 0 1 0,0.76469 z"
     fill="#ffffff"
     id="path6336"
     style="fill:#f50057;fill-opacity:1;stroke-width:0.143138" />
  <circle
     cx="443.17334"
     cy="322.89624"
     r="2.5635254"
     fill="#ffffff"
     id="circle6338"
     style="stroke-width:0.143138" />
  <path
     d="m 457.93695,336.64543 h -29.00818 a 1.776831,1.776831 0 0 1 -1.77479,-1.7748 v -3.90949 a 1.776831,1.776831 0 0 1 1.77479,-1.7748 h 29.00818 a 1.776831,1.776831 0 0 1 1.7748,1.7748 v 3.90949 a 1.776831,1.776831 0 0 1 -1.7748,1.7748 z"
     fill="#e6e6e6"
     id="path6340"
     style="stroke-width:0.143138" />
  <path
     d="m 446.95711,332.24678 h -8.54702 a 0.38234631,0.38234631 0 1 1 0,-0.76469 h 8.54702 a 0.38234631,0.38234631 0 0 1 0,0.76469 z"
     fill="#ffffff"
     id="path6342"
     style="fill:#f50057;fill-opacity:1;stroke-width:0.143138" />
  <path
     d="M 455.17755,334.34969 H 438.3145 a 0.38234631,0.38234631 0 0 1 0,-0.76469 h 16.86305 a 0.38234631,0.38234631 0 0 1 0,0.76469 z"
     fill="#ffffff"
     id="path6344"
     style="fill:#f50057;fill-opacity:1;stroke-width:0.143138" />
  <circle
     cx="433.86935"
     cy="332.91592"
     r="2.5635254"
     fill="#ffffff"
     id="circle6346"
     style="stroke-width:0.143138" />
  <g
     id="g8727"
     transform="matrix(0.16476472,0,0,0.16476472,615.99926,297.46633)">
    <path
       d="m 881.99106,402.29274 c 0,12.57275 -116.40601,50.32258 -260.00001,50.32258 -143.594,0 -260,-37.74983 -260,-50.32258 0,-12.57275 116.406,4.79262 260,4.79262 143.594,0 260.00001,-17.36537 260.00001,-4.79262 z"
       fill="#3f3d56"
       id="path8390" />
    <path
       d="m 881.99106,402.29274 c 0,12.57275 -116.40601,50.32258 -260.00001,50.32258 -143.594,0 -260,-37.74983 -260,-50.32258 0,-12.57275 116.406,4.79262 260,4.79262 143.594,0 260.00001,-17.36537 260.00001,-4.79262 z"
       opacity="0.2"
       id="path8392" />
    <ellipse
       cx="621.99103"
       cy="402.29279"
       rx="260"
       ry="22.76498"
       fill="#3f3d56"
       id="ellipse8394" />
    <ellipse
       cx="619.99103"
       cy="404.57159"
       rx="107"
       ry="10"
       opacity="0.2"
       id="ellipse8396" />
    <path
       d="M 828.37096,174.8313 H 711.49105 v 0.74024 h -279.5 v 40.50018 c 0,104.10559 84.39423,188.49982 188.49982,188.49982 h 3.6e-4 a 188.40822,188.40822 0 0 0 162.83246,-93.5 h 45.04727 a 68.12012,68.12012 0 1 0 0,-136.24024 z m 0,115.24024 h -34.46749 a 187.87964,187.87964 0 0 0 15.08758,-73.99982 V 195.8313 h 19.37991 a 47.12012,47.12012 0 1 1 0,94.24024 z"
       fill="#3f3d56"
       id="path8398" />
    <path
       d="m 449.49105,193.07154 v 23 c 0,94.29 76.71045,171 171,171 94.29,0 171,-76.71 171,-171 v -23 z"
       fill="#f50057"
       id="path8400" />
    <path
       d="m 575.77962,355.73961 -39.14805,-40.3463 a 21.39132,21.39132 0 0 1 0.45594,-30.24845 l 59.20968,-57.4512 a 15.07125,15.07125 0 0 1 4.90293,-3.179 l 12.861,-5.139 a 15.07129,15.07129 0 0 1 16.40865,3.50019 l 40.88125,42.13255 a 15.07127,15.07127 0 0 1 3.20945,16.01046 l -4.32624,11.002 a 15.07137,15.07137 0 0 1 -3.5307,5.30112 l -60.67547,58.87347 a 21.39132,21.39132 0 0 1 -30.24844,-0.45584 z"
       fill="#e6e6e6"
       id="path8402" />
    <rect
       x="614.15851"
       y="-290.44641"
       width="27.310341"
       height="4.09655"
       transform="rotate(45.86357)"
       fill="#3f3d56"
       id="rect8404" />
    <path
       d="m 646.02489,250.77308 c 3.46216,-8.21239 13.77753,-9.98185 21.44955,-11.6099 8.15615,-1.73078 17.44616,-4.7423 20.83431,-13.22447 a 11.24,11.24 0 0 0 -1.09541,-10.72608 c -1.99388,-2.8597 -5.35065,-5.18676 -8.98028,-4.86174 -7.59538,0.68014 -8.94833,9.65118 -6.04668,15.31227 3.91673,7.64149 13.97531,8.30731 21.50242,8.49584 7.27156,0.18213 15.07464,-0.0968 21.71965,-3.38207 a 17.83785,17.83785 0 0 0 10.01438,-16.83762 c -0.23351,-7.33736 -3.47133,-14.18258 -5.40419,-21.1553 -1.85768,-6.70151 -2.44211,-14.1325 2.50377,-19.706 4.79229,-5.40042 12.34629,-7.53307 19.23393,-8.62253 1.76841,-0.27972 3.54847,-0.47027 5.33275,-0.61378 1.9113,-0.15373 1.9278,-3.15506 0,-3 -12.7701,1.02712 -29.50561,5.42681 -31.33993,20.50708 -0.83842,6.8928 1.76634,13.6938 3.8677,20.1291 1.95314,5.98135 4.23823,12.87115 1.73914,19.0407 -2.62356,6.47687 -9.41624,9.11211 -15.85132,10.10037 a 63.179,63.179 0 0 1 -10.47233,0.567 48.15531,48.15531 0 0 1 -12.06294,-1.21207 c -3.38717,-0.929 -6.65267,-2.70782 -8.25867,-5.95792 -1.18017,-2.38832 -1.55733,-5.61035 -0.23424,-8.02242 a 5.19048,5.19048 0 0 1 7.32576,-1.83049 8.5832,8.5832 0 0 1 4.36377,8.27192 c -1.09688,8.49836 -10.81291,11.91132 -17.92513,13.49648 -7.83449,1.74613 -16.67391,3.02577 -22.26986,9.437 a 16.80327,16.80327 0 0 0 -2.839,4.60711 1.51008,1.51008 0 0 0 1.04766,1.84518 1.5372,1.5372 0 0 0 1.84518,-1.04766 z"
       fill="#3f3d56"
       id="path8406" />
    <circle
       cx="524.99103"
       cy="227.57155"
       r="11"
       fill="#e6e6e6"
       id="circle8408" />
    <circle
       cx="726.99103"
       cy="268.57156"
       r="11"
       fill="#e6e6e6"
       id="circle8410" />
    <circle
       cx="671.99103"
       cy="326.57159"
       r="8"
       fill="#e6e6e6"
       id="circle8412" />
    <path
       d="m 448.99105,193.57154 v 23 c 0,94.29 76.71045,171 171,171 94.29,0 171,-76.71 171,-171 v -23 z"
       fill="#f50057"
       opacity="0.3"
       id="path8424" />
    <path
       d="m 773.37636,191.94819 -17.22932,8.69105 a 7.09841,7.09841 0 0 1 -9.63006,-2.78717 l -11.85612,-23.50383 a 4.51619,4.51619 0 0 1 -0.47664,-1.80825 l -0.22625,-4.4635 a 5.19025,5.19025 0 0 1 2.92976,-4.81539 l 17.99211,-9.07583 a 5.20813,5.20813 0 0 1 5.47774,0.39819 l 3.04384,2.31229 a 4.52456,4.52456 0 0 1 1.30713,1.56551 l 12.14963,24.0857 a 7.0984,7.0984 0 0 1 -3.48182,9.40123 z"
       fill="#e6e6e6"
       id="path8432" />
    <rect
       x="589.59778"
       y="479.82205"
       width="9.3745804"
       height="1.30715"
       transform="rotate(-26.76791)"
       fill="#3f3d56"
       id="rect8434" />
    <rect
       x="586.35443"
       y="484.79874"
       width="20.74828"
       height="5.9998298"
       transform="rotate(-26.50666)"
       fill="#f50057"
       id="rect8436" />
    <rect
       x="586.80981"
       y="492.84818"
       width="20.74828"
       height="5.9998298"
       transform="rotate(-26.50666)"
       fill="#f50057"
       id="rect8438" />
    <rect
       x="586.81891"
       y="501.79245"
       width="20.74828"
       height="5.9998298"
       transform="rotate(-26.50666)"
       fill="#f50057"
       id="rect8440" />
  </g>
</svg>
